<?xml version="1.0" standalone="no"?>
<!DOCTYPE svg PUBLIC "-//W3C//DTD SVG 20010904//EN"
 "http://www.w3.org/TR/2001/REC-SVG-20010904/DTD/svg10.dtd">
<svg version="1.0" xmlns="http://www.w3.org/2000/svg"
 width="265.000000pt" height="300.000000pt" viewBox="0 0 265.000000 300.000000"
 preserveAspectRatio="xMidYMid meet">
<metadata>
Created by potrace 1.15, written by Peter Selinger 2001-2017
</metadata>
<g transform="translate(0.000000,300.000000) scale(0.100000,-0.100000)"
fill="#000000" stroke="none">
<path d="M1180 2204 c-173 -45 -344 -191 -399 -340 -68 -180 -35 -397 85 -563
62 -87 101 -225 124 -433 12 -113 12 -352 0 -258 l-7 55 1 -60 c1 -56 3 -61
35 -82 18 -12 38 -20 44 -16 6 4 -3 11 -20 15 -18 5 -35 13 -39 19 -4 8 0 8
14 0 11 -6 40 -11 64 -11 l43 -1 -31 -13 c-18 -8 -37 -22 -44 -33 -11 -17 -11
-17 -5 2 4 14 3 17 -5 9 -17 -17 -2 -40 29 -42 15 -1 47 5 70 13 30 10 48 12
61 5 24 -13 43 -13 35 0 -4 6 1 7 12 4 17 -5 17 -5 0 9 -17 14 -15 16 32 32
29 9 72 15 103 13 l53 -3 -170 -59 c-94 -32 -181 -65 -195 -73 l-25 -14 24 20
c13 12 19 21 14 21 -5 0 -20 -11 -32 -24 -19 -20 -21 -28 -11 -43 11 -17 11
-17 6 2 -6 19 -5 19 8 3 7 -10 20 -18 29 -18 29 0 410 139 430 157 15 13 18
14 12 3 -6 -12 -5 -13 6 -2 7 6 22 13 34 13 11 1 2 5 -20 9 l-40 7 37 2 c63 2
68 15 68 169 0 292 43 470 144 600 83 107 116 205 116 347 0 157 -58 293 -175
410 -139 139 -337 196 -515 149z m221 -44 c137 -25 288 -138 356 -267 98 -183
80 -418 -42 -563 -103 -122 -165 -371 -165 -662 l0 -78 -245 0 c-227 0 -245 1
-245 18 -1 74 -23 322 -35 394 -28 159 -56 235 -130 348 -65 100 -87 168 -93
291 -7 172 27 258 150 374 132 125 287 175 449 145z"/>
<path d="M1152 2086 c-260 -97 -372 -383 -255 -648 19 -43 31 -58 46 -58 23 0
21 21 -17 125 -59 164 -16 342 113 458 54 49 110 76 193 93 76 16 131 12 211
-13 34 -11 52 -12 59 -5 61 61 -214 98 -350 48z"/>
<path d="M1267 356 c-124 -44 -204 -78 -213 -90 -8 -11 -14 -15 -14 -9 0 12
28 38 50 46 13 5 13 6 -1 6 -21 1 -61 -43 -54 -60 8 -22 55 -21 119 1 42 14
63 17 76 10 24 -13 43 -13 35 0 -4 6 1 7 12 4 17 -5 17 -5 0 9 -16 14 -13 16
44 36 44 15 67 18 79 11 27 -15 38 -12 17 4 -17 13 -14 16 32 31 28 9 58 26
66 38 8 12 15 16 15 10 0 -6 -12 -21 -26 -32 -15 -12 -22 -21 -17 -21 17 0 54
47 48 61 -11 29 -72 16 -268 -55z"/>
<path d="M1275 250 c-104 -38 -198 -74 -209 -80 -13 -9 -16 -9 -11 0 4 6 17
15 29 20 14 6 16 9 5 9 -22 1 -61 -43 -54 -60 11 -29 67 -18 262 52 109 39
205 71 213 72 20 3 31 22 24 41 -10 27 -61 17 -259 -54z"/>
<path d="M1215 150 c-30 -12 -48 -37 -41 -57 6 -15 5 -16 -6 -5 -10 10 -10 17
0 32 11 18 10 18 -30 4 -22 -7 -50 -15 -62 -15 -17 -1 -18 -2 -3 -6 10 -3 31
0 47 5 25 9 29 8 34 -13 8 -33 69 -83 111 -91 38 -7 112 24 107 46 -1 6 2 9 7
5 14 -8 41 48 32 64 -4 7 -22 13 -40 13 -19 1 -27 4 -20 9 7 4 19 5 28 2 13
-4 14 -3 2 5 -17 12 -38 3 -65 -27 -21 -23 -9 -29 15 -9 7 7 6 4 -3 -6 -16
-18 -17 -18 -60 2 -40 20 -41 20 -19 2 13 -11 19 -20 14 -20 -5 0 -20 12 -34
27 -13 14 -19 24 -14 21 6 -3 16 0 23 8 14 16 7 17 -23 4z"/>
</g>
</svg>
