<?xml version="1.0" standalone="no"?>
<!DOCTYPE svg PUBLIC "-//W3C//DTD SVG 20010904//EN"
 "http://www.w3.org/TR/2001/REC-SVG-20010904/DTD/svg10.dtd">
<svg version="1.0" xmlns="http://www.w3.org/2000/svg"
 width="474.000000pt" height="986.000000pt" viewBox="0 0 474.000000 986.000000"
 preserveAspectRatio="xMidYMid meet">
<metadata>
Created by potrace 1.15, written by Peter Selinger 2001-2017
</metadata>
<g transform="translate(0.000000,986.000000) scale(0.100000,-0.100000)"
fill="#000000" stroke="none">
<path d="M0 4930 l0 -4930 2370 0 2370 0 0 4930 0 4930 -2370 0 -2370 0 0
-4930z m3920 4090 c0 -5 20 -10 45 -10 33 0 45 -4 45 -15 0 -11 11 -15 40 -15
22 0 40 -4 40 -10 0 -5 11 -10 25 -10 16 0 25 -6 25 -15 0 -9 9 -15 21 -15 22
0 49 -22 49 -39 0 -6 9 -11 21 -11 22 0 49 -22 49 -39 0 -6 5 -11 11 -11 14 0
39 -25 39 -39 0 -6 6 -11 13 -11 7 0 19 -9 27 -20 8 -11 20 -20 27 -20 7 0 13
-11 13 -25 0 -14 5 -25 10 -25 6 0 10 -7 10 -15 0 -8 7 -15 15 -15 9 0 15 -9
15 -25 0 -14 5 -25 10 -25 6 0 10 -11 10 -25 0 -16 6 -25 15 -25 10 0 15 -11
15 -35 0 -19 5 -35 10 -35 6 0 10 -32 10 -75 0 -43 4 -75 10 -75 6 0 10 -30
10 -70 0 -40 -4 -70 -10 -70 -6 0 -10 -28 -10 -65 0 -37 -4 -65 -10 -65 -5 0
-10 -16 -10 -35 0 -24 -5 -35 -15 -35 -9 0 -15 -9 -15 -25 0 -14 -4 -25 -10
-25 -5 0 -10 -11 -10 -25 0 -16 -6 -25 -15 -25 -9 0 -15 -9 -15 -21 0 -22 -22
-49 -39 -49 -6 0 -11 -5 -11 -11 0 -14 -25 -39 -39 -39 -6 0 -11 -5 -11 -11 0
-14 -25 -39 -39 -39 -6 0 -11 -5 -11 -10 0 -19 -48 -60 -70 -60 -11 0 -20 -7
-20 -15 0 -9 -9 -15 -25 -15 -14 0 -25 -4 -25 -10 0 -5 -7 -10 -15 -10 -8 0
-15 -7 -15 -15 0 -10 -11 -15 -35 -15 -19 0 -35 -4 -35 -10 0 -5 -16 -10 -35
-10 -24 0 -35 -5 -35 -15 0 -13 -24 -15 -160 -15 -100 0 -160 -4 -160 -10 0
-5 -7 -10 -15 -10 -9 0 -15 -9 -15 -25 0 -14 -4 -25 -10 -25 -5 0 -10 -11 -10
-25 0 -14 -5 -25 -11 -25 -21 0 -39 -29 -39 -64 0 -25 -4 -36 -15 -36 -9 0
-15 -9 -15 -21 0 -22 -22 -49 -39 -49 -6 0 -11 -11 -11 -25 0 -14 -4 -25 -10
-25 -5 0 -10 -11 -10 -25 0 -16 -6 -25 -15 -25 -9 0 -15 -9 -15 -25 0 -14 -4
-25 -10 -25 -5 0 -10 -11 -10 -25 0 -14 -4 -25 -10 -25 -5 0 -10 -11 -10 -25
0 -16 -6 -25 -15 -25 -9 0 -15 -9 -15 -21 0 -22 -22 -49 -39 -49 -6 0 -11 -16
-11 -36 0 -35 -18 -64 -39 -64 -6 0 -11 -11 -11 -25 0 -14 -4 -25 -10 -25 -5
0 -10 -11 -10 -25 0 -14 -5 -25 -11 -25 -21 0 -39 -29 -39 -64 0 -25 -4 -36
-15 -36 -9 0 -15 -9 -15 -25 0 -14 -4 -25 -10 -25 -5 0 -10 -9 -10 -20 0 -11
-4 -20 -10 -20 -5 0 -10 -7 -10 -15 0 -8 -7 -15 -15 -15 -9 0 -15 -9 -15 -25
0 -14 -4 -25 -10 -25 -5 0 -10 -16 -10 -35 0 -24 -5 -35 -15 -35 -8 0 -15 -7
-15 -15 0 -8 -4 -15 -10 -15 -5 0 -10 -11 -10 -25 0 -16 -6 -25 -15 -25 -8 0
-15 -9 -15 -20 0 -11 -4 -20 -10 -20 -5 0 -10 -11 -10 -25 0 -16 -6 -25 -15
-25 -9 0 -15 -9 -15 -25 0 -14 -4 -25 -10 -25 -5 0 -10 -11 -10 -25 0 -16 -6
-25 -15 -25 -8 0 -15 -7 -15 -15 0 -8 -4 -15 -10 -15 -5 0 -10 -11 -10 -25 0
-14 -4 -25 -10 -25 -5 0 -10 -9 -10 -20 0 -11 -7 -20 -15 -20 -9 0 -15 -9 -15
-25 0 -14 -4 -25 -10 -25 -5 0 -10 -7 -10 -15 0 -8 -7 -15 -15 -15 -10 0 -15
-11 -15 -35 0 -19 -4 -35 -10 -35 -5 0 -10 -11 -10 -25 0 -16 -6 -25 -15 -25
-10 0 -15 -11 -15 -35 0 -24 5 -35 15 -35 8 0 15 -5 15 -11 0 -14 25 -39 39
-39 6 0 11 -5 11 -11 0 -14 25 -39 39 -39 6 0 11 -11 11 -25 0 -14 5 -25 10
-25 6 0 10 -7 10 -15 0 -8 5 -15 10 -15 6 0 10 -11 10 -25 0 -16 6 -25 15 -25
10 0 15 -11 15 -35 0 -19 5 -35 10 -35 6 0 10 -16 10 -35 0 -24 5 -35 15 -35
11 0 15 -12 15 -50 0 -27 5 -50 10 -50 6 0 10 -57 10 -150 0 -93 -4 -150 -10
-150 -5 0 -10 -20 -10 -45 0 -33 -4 -45 -15 -45 -11 0 -15 -12 -15 -50 0 -27
-4 -50 -10 -50 -5 0 -10 -11 -10 -25 0 -16 -6 -25 -15 -25 -9 0 -15 -9 -15
-23 0 -12 -9 -29 -20 -37 -11 -8 -20 -25 -20 -37 0 -14 -6 -23 -15 -23 -9 0
-15 -9 -15 -25 0 -14 -4 -25 -10 -25 -5 0 -10 -7 -10 -15 0 -8 -5 -15 -11 -15
-14 0 -39 -25 -39 -39 0 -6 -5 -11 -11 -11 -14 0 -39 -25 -39 -39 0 -6 -6 -11
-13 -11 -7 0 -19 -9 -27 -20 -8 -11 -20 -20 -27 -20 -7 0 -13 -7 -13 -15 0 -8
-9 -15 -20 -15 -11 0 -20 -4 -20 -10 0 -5 -7 -10 -15 -10 -8 0 -15 -7 -15 -15
0 -9 -9 -15 -25 -15 -14 0 -25 -4 -25 -10 0 -5 -16 -10 -35 -10 -24 0 -35 -5
-35 -15 0 -11 -11 -15 -40 -15 -22 0 -40 -4 -40 -10 0 -6 -30 -10 -70 -10 -56
0 -70 -3 -70 -15 0 -12 -18 -15 -100 -15 -82 0 -100 3 -100 15 0 9 -9 15 -25
15 -16 0 -25 -6 -25 -15 0 -8 -4 -15 -10 -15 -5 0 -10 7 -10 15 0 11 -11 15
-40 15 -22 0 -40 5 -40 10 0 6 -20 10 -45 10 -33 0 -45 4 -45 15 0 9 -9 15
-25 15 -14 0 -25 5 -25 10 0 6 -11 10 -25 10 -16 0 -25 6 -25 15 0 9 -9 15
-25 15 -14 0 -25 5 -25 10 0 6 -7 10 -15 10 -8 0 -15 7 -15 15 0 8 -9 15 -20
15 -22 0 -70 41 -70 60 0 5 -5 10 -11 10 -14 0 -39 25 -39 39 0 6 -5 11 -11
11 -17 0 -39 27 -39 49 0 12 -6 21 -15 21 -8 0 -15 5 -15 11 0 14 -25 39 -39
39 -6 0 -11 11 -11 25 0 14 -4 25 -10 25 -5 0 -10 16 -10 35 0 24 -5 35 -15
35 -11 0 -15 11 -15 40 0 22 -4 40 -10 40 -5 0 -10 11 -10 25 0 14 -4 25 -10
25 -6 0 -10 27 -10 60 0 47 -3 60 -15 60 -12 0 -15 19 -15 110 0 91 3 110 15
110 11 0 15 12 15 50 0 28 5 50 10 50 6 0 10 23 10 50 0 28 5 50 10 50 6 0 10
16 10 35 0 24 5 35 15 35 9 0 15 9 15 21 0 22 22 49 39 49 6 0 11 11 11 25 0
14 5 25 10 25 6 0 10 7 10 15 0 8 5 15 11 15 17 0 39 27 39 49 0 16 6 21 25
21 16 0 25 6 25 15 0 8 5 15 10 15 14 0 60 46 60 60 0 5 5 10 11 10 14 0 39
25 39 39 0 6 16 11 36 11 35 0 64 18 64 39 0 6 7 11 15 11 8 0 15 5 15 10 0 6
16 10 35 10 24 0 35 5 35 15 0 10 11 15 35 15 19 0 35 5 35 10 0 6 32 10 75
10 60 0 75 3 75 15 0 12 19 15 110 15 91 0 110 -3 110 -15 0 -12 15 -15 75
-15 69 0 75 2 75 21 0 22 22 49 39 49 6 0 11 11 11 25 0 14 5 25 10 25 6 0 10
11 10 25 0 16 6 25 15 25 9 0 15 9 15 25 0 14 5 25 10 25 6 0 10 11 10 25 0
16 6 25 15 25 8 0 15 7 15 15 0 8 5 15 10 15 6 0 10 16 10 35 0 19 5 35 11 35
20 0 39 29 39 60 0 31 19 60 39 60 6 0 11 11 11 25 0 14 5 25 10 25 6 0 10 11
10 25 0 16 6 25 15 25 9 0 15 9 15 25 0 14 5 25 10 25 6 0 10 11 10 25 0 14 5
25 11 25 17 0 39 27 39 49 0 12 6 21 15 21 11 0 15 11 15 36 0 32 18 64 35 64
17 0 35 32 35 60 0 31 19 60 39 60 6 0 11 18 11 40 0 22 5 40 10 40 6 0 10 11
10 25 0 16 6 25 15 25 8 0 15 9 15 20 0 11 5 20 10 20 6 0 10 7 10 15 0 8 7
15 15 15 9 0 15 9 15 25 0 14 5 25 10 25 6 0 10 11 10 25 0 16 6 25 15 25 9 0
15 9 15 21 0 22 22 49 39 49 6 0 11 17 11 38 0 26 6 42 20 52 11 8 20 25 20
37 0 14 6 23 15 23 9 0 15 9 15 25 0 14 5 25 10 25 6 0 10 11 10 25 0 16 6 25
15 25 9 0 15 9 15 21 0 22 22 49 39 49 7 0 11 24 11 60 0 47 -3 60 -15 60 -8
0 -15 5 -15 11 0 14 -25 39 -39 39 -6 0 -11 11 -11 25 0 20 -5 25 -25 25 -20
0 -25 5 -25 25 0 14 -4 25 -10 25 -5 0 -10 11 -10 25 0 14 -4 25 -10 25 -5 0
-10 16 -10 35 0 24 -5 35 -15 35 -11 0 -15 12 -15 50 0 28 -4 50 -10 50 -6 0
-10 60 -10 160 0 100 4 160 10 160 6 0 10 16 10 35 0 24 5 35 15 35 11 0 15
11 15 40 0 22 5 40 10 40 6 0 10 11 10 25 0 14 5 25 10 25 6 0 10 11 10 25 0
14 5 25 11 25 17 0 39 27 39 49 0 12 5 21 11 21 14 0 39 25 39 39 0 6 5 11 11
11 14 0 39 25 39 39 0 6 7 11 15 11 8 0 15 5 15 10 0 6 11 10 25 10 14 0 25 5
25 11 0 17 27 39 49 39 12 0 21 6 21 15 0 9 9 15 25 15 14 0 25 5 25 10 0 6
16 10 35 10 24 0 35 5 35 15 0 12 13 15 60 15 33 0 60 4 60 10 0 6 45 10 115
10 70 0 115 -4 115 -10z m-1600 -2235 c0 -12 15 -15 75 -15 43 0 75 -4 75 -10
0 -5 16 -10 35 -10 24 0 35 -5 35 -15 0 -10 11 -15 35 -15 19 0 35 -4 35 -10
0 -5 -4 -10 -10 -10 -5 0 -10 -7 -10 -15 0 -8 -4 -15 -10 -15 -5 0 -10 -11
-10 -25 0 -16 -6 -25 -15 -25 -10 0 -15 -10 -15 -31 0 -30 -19 -59 -39 -59 -6
0 -11 -11 -11 -25 0 -14 -4 -25 -10 -25 -5 0 -10 -11 -10 -25 0 -16 -6 -25
-15 -25 -9 0 -15 -9 -15 -25 0 -20 -5 -25 -25 -25 -14 0 -25 5 -25 10 0 6 -30
10 -70 10 -56 0 -70 3 -70 15 0 13 -24 15 -160 15 -136 0 -160 -2 -160 -15 0
-12 -16 -15 -85 -15 -50 0 -85 -4 -85 -10 0 -5 -18 -10 -40 -10 -29 0 -40 -4
-40 -15 0 -10 -11 -15 -35 -15 -19 0 -35 -4 -35 -10 0 -5 -11 -10 -25 -10 -16
0 -25 -6 -25 -15 0 -10 -11 -15 -35 -15 -19 0 -35 -4 -35 -10 0 -5 -11 -10
-25 -10 -14 0 -25 -4 -25 -10 0 -5 -18 -10 -40 -10 -36 0 -40 -2 -40 -25 0
-20 -5 -25 -25 -25 -16 0 -25 -6 -25 -15 0 -9 -9 -15 -21 -15 -19 0 -49 -21
-49 -35 0 -10 -28 -35 -39 -35 -6 0 -11 -5 -11 -11 0 -14 -25 -39 -39 -39 -6
0 -11 -5 -11 -11 0 -11 -25 -39 -35 -39 -10 0 -35 -28 -35 -39 0 -6 -5 -11
-11 -11 -14 0 -39 -25 -39 -39 0 -6 -5 -11 -11 -11 -17 0 -39 -27 -39 -49 0
-12 -4 -21 -10 -21 -5 0 -10 -11 -10 -25 0 -16 -6 -25 -15 -25 -9 0 -15 -9
-15 -25 0 -14 -4 -25 -10 -25 -5 0 -10 -11 -10 -25 0 -16 -6 -25 -15 -25 -9 0
-15 -9 -15 -25 0 -14 -4 -25 -10 -25 -5 0 -10 -16 -10 -35 0 -24 -5 -35 -15
-35 -11 0 -15 -12 -15 -50 0 -27 -4 -50 -10 -50 -6 0 -10 -40 -10 -100 0 -82
-3 -100 -15 -100 -13 0 -15 -22 -15 -135 0 -113 2 -135 15 -135 12 0 15 -16
15 -85 0 -50 4 -85 10 -85 6 0 10 -22 10 -50 0 -38 4 -50 15 -50 9 0 15 -9 15
-25 0 -14 5 -25 10 -25 6 0 10 -20 10 -45 0 -33 4 -45 15 -45 11 0 15 -11 15
-40 0 -22 5 -40 10 -40 6 0 10 -11 10 -25 0 -16 6 -25 15 -25 9 0 15 -9 15
-25 0 -14 5 -25 10 -25 6 0 10 -9 10 -20 0 -11 5 -20 10 -20 6 0 10 -11 10
-25 0 -16 6 -25 15 -25 9 0 15 -9 15 -25 0 -14 5 -25 10 -25 6 0 10 -11 10
-25 0 -16 6 -25 15 -25 9 0 15 -9 15 -25 0 -14 5 -25 10 -25 6 0 10 -11 10
-25 0 -16 6 -25 15 -25 9 0 15 -9 15 -25 0 -14 5 -25 10 -25 6 0 10 -11 10
-25 0 -16 6 -25 15 -25 9 0 15 -9 15 -25 0 -14 5 -25 10 -25 6 0 10 -11 10
-25 0 -16 6 -25 15 -25 10 0 15 -10 15 -33 0 -21 7 -38 20 -47 11 -8 20 -25
20 -37 0 -14 6 -23 15 -23 11 0 15 -11 15 -40 0 -22 5 -40 10 -40 6 0 10 -11
10 -25 0 -16 6 -25 15 -25 10 0 15 -11 15 -35 0 -19 5 -35 10 -35 6 0 10 -11
10 -25 0 -16 6 -25 15 -25 10 0 15 -11 15 -35 0 -19 5 -35 10 -35 6 0 10 -18
10 -40 0 -29 4 -40 15 -40 10 0 15 -11 15 -35 0 -19 5 -35 10 -35 6 0 10 -32
10 -75 0 -60 3 -75 15 -75 13 0 15 -42 15 -320 0 -278 -2 -320 -15 -320 -8 0
-15 7 -15 15 0 13 -23 15 -145 15 -122 0 -145 -2 -145 -15 0 -8 -7 -15 -15
-15 -13 0 -15 42 -15 320 0 207 -4 320 -10 320 -6 0 -10 28 -10 65 0 51 -3 65
-15 65 -11 0 -15 12 -15 45 0 25 -4 45 -10 45 -5 0 -10 23 -10 50 0 38 -4 50
-15 50 -8 0 -15 7 -15 15 0 8 -4 15 -10 15 -5 0 -10 16 -10 35 0 24 -5 35 -15
35 -9 0 -15 9 -15 25 0 14 -4 25 -10 25 -5 0 -10 11 -10 25 0 14 -4 25 -10 25
-5 0 -10 11 -10 25 0 16 -6 25 -15 25 -9 0 -15 9 -15 25 0 14 -4 25 -10 25 -5
0 -10 11 -10 25 0 14 -5 25 -11 25 -17 0 -39 27 -39 49 0 12 -5 21 -11 21 -17
0 -39 27 -39 49 0 12 -6 21 -15 21 -11 0 -15 11 -15 36 0 35 -18 64 -39 64 -6
0 -11 10 -11 23 0 12 -9 29 -20 37 -11 8 -20 25 -20 37 0 14 -6 23 -15 23 -9
0 -15 9 -15 25 0 14 -4 25 -10 25 -5 0 -10 11 -10 25 0 16 -6 25 -15 25 -9 0
-15 9 -15 25 0 14 -4 25 -10 25 -5 0 -10 11 -10 25 0 16 -6 25 -15 25 -9 0
-15 9 -15 25 0 14 -4 25 -10 25 -5 0 -10 16 -10 35 0 24 -5 35 -15 35 -11 0
-15 12 -15 50 0 28 -4 50 -10 50 -5 0 -10 23 -10 50 0 38 -4 50 -15 50 -10 0
-15 11 -15 35 0 19 -4 35 -10 35 -6 0 -10 35 -10 85 0 50 -4 85 -10 85 -6 0
-10 65 -10 175 0 110 4 175 10 175 6 0 10 38 10 95 0 57 4 95 10 95 6 0 10 23
10 50 0 38 4 50 15 50 9 0 15 9 15 25 0 14 5 25 10 25 6 0 10 18 10 40 0 29 4
40 15 40 10 0 15 11 15 35 0 19 5 35 10 35 6 0 10 16 10 35 0 24 5 35 15 35 9
0 15 9 15 25 0 14 5 25 10 25 6 0 10 7 10 15 0 8 5 15 11 15 20 0 39 29 39 59
0 21 5 31 15 31 8 0 15 6 15 13 0 7 9 19 20 27 11 8 20 25 20 37 0 14 6 23 15
23 8 0 15 5 15 11 0 14 25 39 39 39 6 0 11 11 11 25 0 14 5 25 10 25 6 0 10 7
10 15 0 8 6 15 13 15 7 0 19 9 27 20 8 11 20 20 27 20 7 0 13 5 13 11 0 14 25
39 39 39 6 0 11 6 11 13 0 7 9 19 20 27 11 8 20 20 20 27 0 7 11 13 25 13 14
0 25 5 25 10 0 6 7 10 15 10 8 0 15 5 15 11 0 17 27 39 49 39 12 0 21 6 21 15
0 8 7 15 15 15 8 0 15 5 15 10 0 6 11 10 25 10 14 0 25 5 25 10 0 6 9 10 20
10 11 0 20 7 20 15 0 8 7 15 15 15 8 0 15 5 15 10 0 6 11 10 25 10 16 0 25 6
25 15 0 10 11 15 35 15 19 0 35 5 35 10 0 6 11 10 25 10 16 0 25 6 25 15 0 9
9 15 25 15 14 0 25 5 25 10 0 6 16 10 35 10 24 0 35 5 35 15 0 11 12 15 50 15
28 0 50 5 50 10 0 6 23 10 50 10 38 0 50 4 50 15 0 13 37 15 270 15 233 0 270
-2 270 -15z m910 -416 c0 -14 25 -39 39 -39 6 0 11 -5 11 -11 0 -11 25 -39 35
-39 10 0 35 -28 35 -39 0 -6 7 -11 15 -11 9 0 15 -9 15 -23 0 -12 9 -29 20
-37 11 -8 20 -20 20 -27 0 -7 7 -13 15 -13 9 0 15 -9 15 -21 0 -22 22 -49 39
-49 6 0 11 -9 11 -21 0 -22 22 -49 39 -49 6 0 11 -11 11 -25 0 -14 5 -25 10
-25 6 0 10 -11 10 -25 0 -16 6 -25 15 -25 9 0 15 -9 15 -25 0 -14 5 -25 10
-25 6 0 10 -18 10 -40 0 -29 4 -40 15 -40 8 0 15 -9 15 -20 0 -11 5 -20 10
-20 6 0 10 -18 10 -40 0 -22 5 -40 10 -40 6 0 10 -16 10 -35 0 -24 5 -35 15
-35 11 0 15 -12 15 -50 0 -27 5 -50 10 -50 6 0 10 -40 10 -100 0 -82 3 -100
15 -100 13 0 15 -22 15 -135 0 -113 -2 -135 -15 -135 -12 0 -15 -17 -15 -95 0
-57 -4 -95 -10 -95 -6 0 -10 -28 -10 -65 0 -51 -3 -65 -15 -65 -10 0 -15 -11
-15 -35 0 -19 -4 -35 -10 -35 -5 0 -10 -16 -10 -35 0 -19 -4 -35 -10 -35 -5 0
-10 -18 -10 -40 0 -29 -4 -40 -15 -40 -9 0 -15 -9 -15 -25 0 -14 -4 -25 -10
-25 -5 0 -10 -9 -10 -20 0 -11 -7 -20 -15 -20 -11 0 -15 -11 -15 -40 0 -22 -4
-40 -10 -40 -5 0 -10 -11 -10 -25 0 -14 -5 -25 -11 -25 -17 0 -39 -27 -39 -49
0 -12 -6 -21 -15 -21 -9 0 -15 -9 -15 -25 0 -14 -4 -25 -10 -25 -5 0 -10 -11
-10 -25 0 -14 -5 -25 -11 -25 -17 0 -39 -27 -39 -49 0 -12 -4 -21 -10 -21 -5
0 -10 -11 -10 -25 0 -16 -6 -25 -15 -25 -9 0 -15 -9 -15 -25 0 -14 -4 -25 -10
-25 -5 0 -10 -7 -10 -15 0 -8 -7 -15 -15 -15 -8 0 -15 -9 -15 -20 0 -11 -4
-20 -10 -20 -5 0 -10 -11 -10 -25 0 -16 -6 -25 -15 -25 -9 0 -15 -9 -15 -25 0
-14 -4 -25 -10 -25 -5 0 -10 -11 -10 -25 0 -16 -6 -25 -15 -25 -9 0 -15 -9
-15 -25 0 -14 -4 -25 -10 -25 -5 0 -10 -11 -10 -25 0 -16 -6 -25 -15 -25 -9 0
-15 -9 -15 -25 0 -14 -4 -25 -10 -25 -5 0 -10 -11 -10 -25 0 -14 -4 -25 -10
-25 -5 0 -10 -22 -10 -50 0 -38 -4 -50 -15 -50 -10 0 -15 -11 -15 -35 0 -19
-4 -35 -10 -35 -6 0 -10 -27 -10 -60 0 -47 -3 -60 -15 -60 -13 0 -15 -44 -15
-335 0 -217 -4 -335 -10 -335 -5 0 -10 7 -10 15 0 13 -23 15 -150 15 -127 0
-150 -2 -150 -15 0 -9 -9 -15 -25 -15 l-25 0 0 270 c0 233 2 270 15 270 12 0
15 18 15 100 0 60 4 100 10 100 6 0 10 16 10 35 0 24 5 35 15 35 11 0 15 12
15 50 0 28 5 50 10 50 6 0 10 18 10 40 0 29 4 40 15 40 9 0 15 9 15 25 0 14 5
25 10 25 6 0 10 16 10 35 0 24 5 35 15 35 9 0 15 9 15 25 0 14 5 25 10 25 6 0
10 16 10 35 0 19 5 35 10 35 6 0 10 11 10 25 0 16 6 25 15 25 9 0 15 9 15 25
0 14 5 25 10 25 6 0 10 11 10 25 0 16 6 25 15 25 9 0 15 9 15 25 0 14 5 25 10
25 6 0 10 11 10 25 0 16 6 25 15 25 9 0 15 9 15 25 0 14 5 25 10 25 6 0 10 11
10 25 0 16 6 25 15 25 8 0 15 9 15 20 0 11 5 20 10 20 6 0 10 11 10 25 0 16 6
25 15 25 9 0 15 9 15 25 0 14 5 25 10 25 6 0 10 11 10 25 0 14 5 25 10 25 6 0
10 11 10 25 0 16 6 25 15 25 9 0 15 9 15 25 0 14 5 25 10 25 6 0 10 11 10 25
0 16 6 25 15 25 9 0 15 9 15 25 0 14 5 25 10 25 6 0 10 16 10 35 0 24 5 35 15
35 9 0 15 9 15 25 0 14 5 25 10 25 6 0 10 16 10 35 0 24 5 35 15 35 11 0 15
12 15 50 0 28 5 50 10 50 6 0 10 23 10 50 0 38 4 50 15 50 12 0 15 16 15 85 0
50 4 85 10 85 6 0 10 35 10 85 0 50 -4 85 -10 85 -6 0 -10 40 -10 100 0 82 -3
100 -15 100 -11 0 -15 12 -15 50 0 28 -4 50 -10 50 -5 0 -10 16 -10 35 0 24
-5 35 -15 35 -11 0 -15 11 -15 40 0 22 -4 40 -10 40 -5 0 -10 11 -10 25 0 16
-6 25 -15 25 -8 0 -15 9 -15 20 0 11 -4 20 -10 20 -5 0 -10 11 -10 25 0 16 -6
25 -15 25 -8 0 -15 7 -15 15 0 8 -4 15 -10 15 -5 0 -10 11 -10 25 0 14 -5 25
-11 25 -17 0 -39 27 -39 49 0 12 -4 21 -10 21 -5 0 -10 7 -10 15 0 8 -6 15
-13 15 -7 0 -19 9 -27 20 -8 11 -20 20 -27 20 -8 0 -13 14 -13 40 0 29 4 40
15 40 9 0 15 9 15 25 0 14 5 25 10 25 6 0 10 11 10 25 0 16 6 25 15 25 9 0 15
9 15 25 0 14 5 25 10 25 6 0 10 9 10 20 0 11 5 20 10 20 6 0 10 7 10 15 0 8 7
15 15 15 9 0 15 9 15 25 0 20 5 25 25 25 14 0 25 -5 25 -11z m-320 -4029 c0
-5 16 -10 35 -10 31 0 35 -3 35 -25 0 -16 6 -25 15 -25 13 0 15 -24 15 -160 0
-136 -2 -160 -15 -160 -8 0 -15 -5 -15 -11 0 -39 9 -39 -894 -39 -571 0 -866
3 -866 10 0 6 -11 10 -25 10 -20 0 -25 5 -25 25 0 16 -6 25 -15 25 -13 0 -15
23 -15 150 0 127 2 150 15 150 9 0 15 9 15 25 0 22 4 25 35 25 19 0 35 5 35
10 0 7 285 10 835 10 550 0 835 -3 835 -10z m70 -565 c0 -8 7 -15 15 -15 13 0
15 -26 15 -170 0 -144 -2 -170 -15 -170 -8 0 -15 -5 -15 -11 0 -39 9 -39 -905
-39 -914 0 -905 0 -905 39 0 6 -7 11 -15 11 -13 0 -15 26 -15 170 0 144 2 170
15 170 8 0 15 7 15 15 0 13 107 15 905 15 798 0 905 -2 905 -15z m30 -640 c0
-113 -2 -135 -15 -135 -11 0 -15 -12 -15 -50 0 -27 -4 -50 -10 -50 -5 0 -10
-16 -10 -35 0 -24 -5 -35 -15 -35 -9 0 -15 -9 -15 -25 0 -14 -4 -25 -10 -25
-5 0 -10 -11 -10 -25 0 -16 -6 -25 -15 -25 -9 0 -15 -9 -15 -23 0 -12 -9 -29
-20 -37 -11 -8 -20 -25 -20 -37 0 -14 -6 -23 -15 -23 -8 0 -15 -5 -15 -11 0
-11 -25 -39 -35 -39 -10 0 -35 -28 -35 -39 0 -6 -7 -11 -15 -11 -8 0 -15 -4
-15 -10 0 -5 -11 -10 -25 -10 -14 0 -25 -5 -25 -11 0 -17 -27 -39 -49 -39 -12
0 -21 -6 -21 -15 0 -9 -9 -15 -25 -15 -14 0 -25 -4 -25 -10 0 -5 -16 -10 -35
-10 -24 0 -35 -5 -35 -15 0 -11 -11 -15 -40 -15 -22 0 -40 -4 -40 -10 0 -5
-20 -10 -45 -10 -33 0 -45 -4 -45 -15 0 -13 -32 -15 -225 -15 -193 0 -225 2
-225 15 0 11 -12 15 -45 15 -25 0 -45 5 -45 10 0 6 -18 10 -40 10 -29 0 -40 4
-40 15 0 10 -11 15 -35 15 -19 0 -35 5 -35 10 0 6 -11 10 -25 10 -16 0 -25 6
-25 15 0 8 -7 15 -15 15 -8 0 -15 5 -15 10 0 6 -9 10 -20 10 -11 0 -20 7 -20
15 0 9 -9 15 -25 15 -14 0 -25 5 -25 10 0 6 -7 10 -15 10 -8 0 -15 5 -15 11 0
11 -25 39 -35 39 -10 0 -35 28 -35 39 0 6 -7 11 -15 11 -9 0 -15 9 -15 21 0
22 -22 49 -39 49 -6 0 -11 11 -11 25 0 14 -4 25 -10 25 -5 0 -10 11 -10 25 0
14 -4 25 -10 25 -5 0 -10 11 -10 25 0 16 -6 25 -15 25 -10 0 -15 11 -15 35 0
19 -4 35 -10 35 -6 0 -10 28 -10 65 0 51 -3 65 -15 65 -12 0 -15 20 -15 120
l0 120 935 0 935 0 0 -135z"/>
<path d="M1980 5410 c0 -5 -11 -10 -25 -10 -16 0 -25 -6 -25 -15 0 -9 -9 -15
-25 -15 -14 0 -25 -4 -25 -10 0 -5 -7 -10 -15 -10 -8 0 -15 -5 -15 -11 0 -14
-25 -39 -39 -39 -6 0 -11 -7 -11 -15 0 -8 -4 -15 -10 -15 -5 0 -10 -16 -10
-35 0 -19 -4 -35 -10 -35 -6 0 -10 -48 -10 -125 0 -77 4 -125 10 -125 6 0 10
-9 10 -20 0 -11 5 -20 10 -20 6 0 10 -7 10 -15 0 -8 5 -15 11 -15 14 0 39 -25
39 -39 0 -6 5 -11 11 -11 14 0 39 -25 39 -39 0 -6 18 -11 40 -11 22 0 40 -4
40 -10 0 -6 47 -10 120 -10 73 0 120 4 120 10 0 6 7 10 15 10 8 0 15 7 15 15
0 9 9 15 21 15 19 0 49 21 49 35 0 10 28 35 39 35 6 0 11 11 11 25 0 14 5 25
10 25 6 0 10 16 10 35 0 24 5 35 15 35 12 0 15 17 15 90 0 73 -3 90 -15 90 -8
0 -15 9 -15 20 0 11 -4 20 -10 20 -5 0 -10 18 -10 40 0 36 -2 40 -25 40 -20 0
-25 5 -25 25 0 20 -5 25 -25 25 -14 0 -25 5 -25 10 0 6 -11 10 -25 10 -16 0
-25 6 -25 15 0 9 -9 15 -25 15 -14 0 -25 5 -25 10 0 6 -38 10 -95 10 -57 0
-95 -4 -95 -10z"/>
</g>
</svg>
