<?xml version="1.0" encoding="UTF-8"?>
<svg xmlns="http://www.w3.org/2000/svg" xmlns:xlink="http://www.w3.org/1999/xlink" width="24pt" height="24pt" viewBox="0 0 24 24" version="1.1">
<g id="surface11214981">
<path style=" stroke:none;fill-rule:nonzero;fill:rgb(100%,100%,100%);fill-opacity:1;" d="M 4 2 C 2.894531 2 2 2.894531 2 4 L 2 16 C 2 17.105469 2.894531 18 4 18 L 16 18 C 17.105469 18 18 17.105469 18 16 L 18 4 C 18 2.894531 17.105469 2 16 2 Z M 14 6 C 14.257812 6 14.511719 6.097656 14.707031 6.292969 C 15.097656 6.683594 15.097656 7.316406 14.707031 7.707031 L 9.707031 12.707031 C 9.316406 13.097656 8.683594 13.097656 8.292969 12.707031 L 5.292969 9.707031 C 4.902344 9.316406 4.902344 8.683594 5.292969 8.292969 C 5.683594 7.902344 6.316406 7.902344 6.707031 8.292969 L 9 10.585938 L 13.292969 6.292969 C 13.488281 6.097656 13.742188 6 14 6 Z M 21 6 C 20.449219 6 20 6.449219 20 7 L 20 20 L 7 20 C 6.449219 20 6 20.449219 6 21 C 6 21.550781 6.449219 22 7 22 L 20 22 C 21.105469 22 22 21.105469 22 20 L 22 7 C 22 6.449219 21.550781 6 21 6 Z M 21 6 "/>
</g>
</svg>
