<?xml version="1.0" encoding="UTF-8"?>
<svg xmlns="http://www.w3.org/2000/svg" xmlns:xlink="http://www.w3.org/1999/xlink" width="24pt" height="24pt" viewBox="0 0 24 24" version="1.1">
<g id="surface11546521">
<path style=" stroke:none;fill-rule:nonzero;fill:rgb(100%,100%,100%);fill-opacity:1;" d="M 5.585938 3 L 3.585938 5 L 2 5 L 2 7 L 4.414062 7 L 7 4.414062 Z M 9 5 L 9 7 L 22 7 L 22 5 Z M 5.585938 9 L 3.585938 11 L 2 11 L 2 13 L 4.414062 13 L 7 10.414062 Z M 9 11 L 9 13 L 22 13 L 22 11 Z M 4 16.5 C 3.171875 16.5 2.5 17.171875 2.5 18 C 2.5 18.828125 3.171875 19.5 4 19.5 C 4.828125 19.5 5.5 18.828125 5.5 18 C 5.5 17.171875 4.828125 16.5 4 16.5 Z M 9 17 L 9 19 L 22 19 L 22 17 Z M 9 17 "/>
</g>
</svg>
