<?xml version="1.0" encoding="UTF-8"?>
<svg xmlns="http://www.w3.org/2000/svg" xmlns:xlink="http://www.w3.org/1999/xlink" width="24pt" height="24pt" viewBox="0 0 24 24" version="1.1">
<g id="surface11280507">
<path style=" stroke:none;fill-rule:nonzero;fill:rgb(100%,100%,100%);fill-opacity:1;" d="M 6 2 C 4.898438 2 4 2.898438 4 4 L 4 20 C 4 21.101562 4.898438 22 6 22 L 11.078125 22 C 10.71875 21.382812 10.445312 20.710938 10.261719 20 L 6 20 L 6 16 L 10.261719 16 C 10.699219 14.304688 11.671875 12.824219 13 11.757812 L 13 10 L 18 10 C 18.691406 10 19.359375 10.097656 20 10.261719 L 20 4 C 20 2.898438 19.101562 2 18 2 Z M 6 4 L 11 4 L 11 8 L 6 8 Z M 13 4 L 18 4 L 18 8 L 13 8 Z M 6 10 L 11 10 L 11 14 L 6 14 Z M 18 12 C 14.699219 12 12 14.699219 12 18 C 12 21.300781 14.699219 24 18 24 C 21.300781 24 24 21.300781 24 18 C 24 14.699219 21.300781 12 18 12 Z M 18 14 C 20.222656 14 22 15.777344 22 18 C 22 20.222656 20.222656 22 18 22 C 15.777344 22 14 20.222656 14 18 C 14 15.777344 15.777344 14 18 14 Z M 18.429688 15.117188 L 16.828125 18.140625 L 18.925781 20.238281 L 19.988281 19.175781 L 18.671875 17.859375 L 19.753906 15.816406 Z M 18.429688 15.117188 "/>
</g>
</svg>
