<?xml version="1.0" encoding="UTF-8"?>
<svg xmlns="http://www.w3.org/2000/svg" xmlns:xlink="http://www.w3.org/1999/xlink" width="24pt" height="24pt" viewBox="0 0 24 24" version="1.1">
<g id="surface11272979">
<path style=" stroke:none;fill-rule:nonzero;fill:rgb(100%,100%,100%);fill-opacity:1;" d="M 6 2 C 4.90625 2 4 2.90625 4 4 L 4 20 C 4 21.09375 4.90625 22 6 22 L 18 22 C 19.09375 22 20 21.09375 20 20 L 20 8 L 14 2 Z M 6 4 L 13 4 L 13 9 L 18 9 L 18 20 L 6 20 Z M 8 12 L 8 14 L 16 14 L 16 12 Z M 8 16 L 8 18 L 16 18 L 16 16 Z M 8 16 "/>
</g>
</svg>
