<?xml version="1.0" encoding="UTF-8"?>
<svg xmlns="http://www.w3.org/2000/svg" xmlns:xlink="http://www.w3.org/1999/xlink" width="24pt" height="24pt" viewBox="0 0 24 24" version="1.1">
<g id="surface11277255">
<path style=" stroke:none;fill-rule:nonzero;fill:rgb(100%,100%,100%);fill-opacity:1;" d="M 8 2 C 6.894531 2 6 2.894531 6 4 L 6 20 C 6 21.105469 6.894531 22 8 22 L 16 22 C 17.105469 22 18 21.105469 18 20 L 18 15 L 16 15 L 16 20 L 8 20 L 8 4 L 16 4 L 16 9 L 18 9 L 18 4 C 18 2.894531 17.105469 2 16 2 Z M 20 8 L 20 11 L 11 11 L 11 13 L 20 13 L 20 16 L 24 12 Z M 20 8 "/>
</g>
</svg>
