<?xml version="1.0" encoding="UTF-8"?>
<svg width="20px" height="20px" viewBox="0 0 20 20" version="1.1" xmlns="http://www.w3.org/2000/svg" xmlns:xlink="http://www.w3.org/1999/xlink">
    <!-- Generator: Sketch 61.2 (89653) - https://sketch.com -->
    <title>palette-24px</title>
    <desc>Created with Sketch.</desc>
    <g id="Page-1" stroke="none" stroke-width="1" fill="none" fill-rule="evenodd">
        <g id="Desktop" transform="translate(-3.000000, -19.000000)">
            <g id="palette-24px" transform="translate(1.000000, 17.000000)">
                <polygon id="Path" points="0 0 24 0 24 24 0 24"></polygon>
                <path d="M12,22 C6.49,22 2,17.51 2,12 C2,6.49 6.49,2 12,2 C17.51,2 22,6.04 22,11 C22,14.31 19.31,17 16,17 L14.23,17 C13.95,17 13.73,17.22 13.73,17.5 C13.73,17.62 13.78,17.73 13.86,17.83 C14.27,18.3 14.5,18.89 14.5,19.5 C14.5,20.88 13.38,22 12,22 Z M12,4 C7.59,4 4,7.59 4,12 C4,16.41 7.59,20 12,20 C12.28,20 12.5,19.78 12.5,19.5 C12.5,19.34 12.42,19.22 12.36,19.15 C11.95,18.69 11.73,18.1 11.73,17.5 C11.73,16.12 12.85,15 14.23,15 L16,15 C18.21,15 20,13.21 20,11 C20,7.14 16.41,4 12,4 Z" id="Shape" fill="#FFFFFF" fill-rule="nonzero"></path>
                <circle id="Oval" fill="#FFFFFF" fill-rule="nonzero" cx="6.5" cy="11.5" r="1.5"></circle>
                <circle id="Oval" fill="#FFFFFF" fill-rule="nonzero" cx="9.5" cy="7.5" r="1.5"></circle>
                <circle id="Oval" fill="#FFFFFF" fill-rule="nonzero" cx="14.5" cy="7.5" r="1.5"></circle>
                <circle id="Oval" fill="#FFFFFF" fill-rule="nonzero" cx="17.5" cy="11.5" r="1.5"></circle>
            </g>
        </g>
    </g>
</svg>