<?xml version="1.0" encoding="UTF-8"?>
<svg width="22px" height="22px" viewBox="0 0 22 22" version="1.1" xmlns="http://www.w3.org/2000/svg" xmlns:xlink="http://www.w3.org/1999/xlink">
    <!-- Generator: Sketch 58 (84663) - https://sketch.com -->
    <title>Queue</title>
    <desc>Created with Sketch.</desc>
    <g id="Queue" stroke="none" stroke-width="1" fill="none" fill-rule="evenodd">
        <rect fill="#000000" opacity="0" x="0" y="0" width="22" height="22"></rect>
        <g id="dynamic_feed-24px">
            <rect id="Rectangle" x="0" y="0" width="22" height="22"></rect>
            <g id="Group" transform="translate(1.833333, 2.750000)" fill-rule="nonzero">
                <path d="M5.5,5.16666667 L3.66666667,5.16666667 L3.66666667,11.5833333 C3.66666667,12.5916667 4.49166667,13.4166667 5.5,13.4166667 L13.75,13.4166667 L13.75,11.5833333 L5.5,11.5833333 L5.5,5.16666667 Z" id="Path" fill="#FFFFFF"></path>
                <path d="M16.5,3.8191672e-14 L9.16666667,3.8191672e-14 C8.15833333,3.8191672e-14 7.33333333,0.825 7.33333333,1.83333333 L7.33333333,7.33333333 C7.33333333,8.34166667 8.15833333,9.16666667 9.16666667,9.16666667 L16.5,9.16666667 C17.5083333,9.16666667 18.3333333,8.34166667 18.3333333,7.33333333 L18.3333333,1.83333333 C18.3333333,0.825 17.5083333,3.8191672e-14 16.5,3.8191672e-14 Z M16.5,7.33333333 L9.16666667,7.33333333 L9.16666667,3.66666667 L16.5,3.66666667 L16.5,7.33333333 Z" id="Shape" fill="#000000"></path>
                <path d="M1.83333333,9.41666667 L-8.8817842e-15,9.41666667 L-8.8817842e-15,15.8333333 C-8.8817842e-15,16.8416667 0.825,17.6666667 1.83333333,17.6666667 L10.0833333,17.6666667 L10.0833333,15.8333333 L1.83333333,15.8333333 L1.83333333,9.41666667 Z" id="Path" fill="#FFFFFF"></path>
            </g>
            <g id="Group" transform="translate(1.833333, 2.750000)" fill="#FFFFFF" fill-rule="nonzero">
                <path d="M5.5,4.58333333 L3.66666667,4.58333333 L3.66666667,11 C3.66666667,12.0083333 4.49166667,12.8333333 5.5,12.8333333 L13.75,12.8333333 L13.75,11 L5.5,11 L5.5,4.58333333 Z" id="Path"></path>
                <path d="M16.5,0 L9.16666667,0 C8.15833333,0 7.33333333,0.825 7.33333333,1.83333333 L7.33333333,7.33333333 C7.33333333,8.34166667 8.15833333,9.16666667 9.16666667,9.16666667 L16.5,9.16666667 C17.5083333,9.16666667 18.3333333,8.34166667 18.3333333,7.33333333 L18.3333333,1.83333333 C18.3333333,0.825 17.5083333,0 16.5,0 Z M16.5,7.33333333 L9.16666667,7.33333333 L9.16666667,3.66666667 L16.5,3.66666667 L16.5,7.33333333 Z" id="Shape"></path>
                <path d="M1.83333333,8.25 L0,8.25 L0,14.6666667 C0,15.675 0.825,16.5 1.83333333,16.5 L10.0833333,16.5 L10.0833333,14.6666667 L1.83333333,14.6666667 L1.83333333,8.25 Z" id="Path"></path>
            </g>
        </g>
    </g>
</svg>