<?xml version="1.0" encoding="UTF-8"?>
<svg width="22px" height="22px" viewBox="0 0 22 22" version="1.1" xmlns="http://www.w3.org/2000/svg" xmlns:xlink="http://www.w3.org/1999/xlink">
    <!-- Generator: Sketch 58 (84663) - https://sketch.com -->
    <title>Settings</title>
    <desc>Created with Sketch.</desc>
    <g id="Settings" stroke="none" stroke-width="1" fill="none" fill-rule="evenodd">
        <rect fill="#000000" opacity="0" x="0" y="0" width="22" height="22"></rect>
        <g id="settings-24px">
            <polygon id="Path" points="0 0 22 0 22 22 0 22"></polygon>
            <path d="M17.545,11.8616667 C17.5816667,11.5866667 17.6,11.3025 17.6,11 C17.6,10.7066667 17.5816667,10.4133333 17.5358333,10.1383333 L19.3966667,8.69 C19.5616667,8.56166667 19.6075,8.31416667 19.5066667,8.13083333 L17.7466667,5.0875 C17.6366667,4.88583333 17.4075,4.82166667 17.2058333,4.88583333 L15.015,5.76583333 C14.5566667,5.4175 14.0708333,5.12416667 13.53,4.90416667 L13.2,2.57583333 C13.1633333,2.35583333 12.98,2.2 12.76,2.2 L9.24,2.2 C9.02,2.2 8.84583333,2.35583333 8.80916667,2.57583333 L8.47916667,4.90416667 C7.93833333,5.12416667 7.44333333,5.42666667 6.99416667,5.76583333 L4.80333333,4.88583333 C4.60166667,4.8125 4.3725,4.88583333 4.2625,5.0875 L2.51166667,8.13083333 C2.40166667,8.32333333 2.43833333,8.56166667 2.62166667,8.69 L4.4825,10.1383333 C4.43666667,10.4133333 4.4,10.7158333 4.4,11 C4.4,11.2841667 4.41833333,11.5866667 4.46416667,11.8616667 L2.60333333,13.31 C2.43833333,13.4383333 2.3925,13.6858333 2.49333333,13.8691667 L4.25333333,16.9125 C4.36333333,17.1141667 4.5925,17.1783333 4.79416667,17.1141667 L6.985,16.2341667 C7.44333333,16.5825 7.92916667,16.8758333 8.47,17.0958333 L8.8,19.4241667 C8.84583333,19.6441667 9.02,19.8 9.24,19.8 L12.76,19.8 C12.98,19.8 13.1633333,19.6441667 13.1908333,19.4241667 L13.5208333,17.0958333 C14.0616667,16.8758333 14.5566667,16.5825 15.0058333,16.2341667 L17.1966667,17.1141667 C17.3983333,17.1875 17.6275,17.1141667 17.7375,16.9125 L19.4975,13.8691667 C19.6075,13.6675 19.5616667,13.4383333 19.3875,13.31 L17.545,11.8616667 Z M11,14.3 C9.185,14.3 7.7,12.815 7.7,11 C7.7,9.185 9.185,7.7 11,7.7 C12.815,7.7 14.3,9.185 14.3,11 C14.3,12.815 12.815,14.3 11,14.3 Z" id="Shape" fill="#FFFFFF" fill-rule="nonzero"></path>
        </g>
    </g>
</svg>