<?xml version="1.0" encoding="UTF-8"?>
<svg width="26px" height="15px" viewBox="0 0 26 15" version="1.1" xmlns="http://www.w3.org/2000/svg" xmlns:xlink="http://www.w3.org/1999/xlink">
    <!-- Generator: Sketch 61.2 (89653) - https://sketch.com -->
    <title>Add chart</title>
    <desc>Created with Sketch.</desc>
    <defs>
        <linearGradient x1="50%" y1="0%" x2="50%" y2="100%" id="linearGradient-1">
            <stop stop-color="#017AFF" offset="0%"></stop>
            <stop stop-color="#00BEFF" offset="100%"></stop>
        </linearGradient>
    </defs>
    <g id="Dark-Mode" stroke="none" stroke-width="1" fill="none" fill-rule="evenodd">
        <g id="Dashboard-Collapsed-Dark" transform="translate(-829.000000, -197.000000)">
            <g id="Page" transform="translate(-9.000000, -7.000000)">
                <g id="Add-chart" transform="translate(838.000000, 204.000000)">
                    <rect id="Rectangle" fill="#D8D8D8" x="0" y="5" width="4" height="10" rx="0.5"></rect>
                    <rect id="Rectangle-Copy" fill="#D8D8D8" x="5" y="3" width="4" height="12" rx="0.5"></rect>
                    <rect id="Rectangle-Copy-2" fill="#D8D8D8" x="10" y="7" width="4" height="8" rx="0.5"></rect>
                    <path d="M15.5,0 L18.5,0 C18.7761424,-5.07265313e-17 19,0.223857625 19,0.5 L19,6.0054116 L19,6.0054116 L17.5136872,6.0054116 C16.9614025,6.0054116 16.5136872,6.45312685 16.5136872,7.0054116 L16.5136872,10 C16.5136872,10.5522847 16.9614025,11 17.5136872,11 L19,11 L19,11 L19,14.5 C19,14.7761424 18.7761424,15 18.5,15 L15.5,15 C15.2238576,15 15,14.7761424 15,14.5 L15,0.5 C15,0.223857625 15.2238576,5.07265313e-17 15.5,0 Z" id="Rectangle-Copy-3" fill="#D8D8D8"></path>
                    <path d="M22.5,4.5 C22.7761424,4.5 23,4.72385763 23,5 L23,6.999 L25,7 C25.2761424,7 25.5,7.22385763 25.5,7.5 L25.5,9.5 C25.5,9.77614237 25.2761424,10 25,10 L23,10 L23,12 C23,12.2761424 22.7761424,12.5 22.5,12.5 L20.5,12.5 C20.2238576,12.5 20,12.2761424 20,12 L20,10 L18,10 C17.7238576,10 17.5,9.77614237 17.5,9.5 L17.5,7.5 C17.5,7.22385763 17.7238576,7 18,7 L20,7 L20,5 C20,4.72385763 20.2238576,4.5 20.5,4.5 L22.5,4.5 Z" id="mask" fill="url(#linearGradient-1)"></path>
                </g>
            </g>
        </g>
    </g>
</svg>