<svg fill="#000000" xmlns="http://www.w3.org/2000/svg" viewBox="0 0 24 24" width="24px" height="24px"><path d="M 6 2 C 4.897 2 4 2.897 4 4 L 4 20 C 4 21.103 4.897 22 6 22 L 11.078125 22 C 10.719125 21.381 10.444719 20.71 10.261719 20 L 6 20 L 6 16 L 10.261719 16 C 10.699719 14.303 11.673 12.824766 13 11.759766 L 13 10 L 18 10 C 18.692 10 19.36 10.096719 20 10.261719 L 20 4 C 20 2.897 19.103 2 18 2 L 6 2 z M 6 4 L 11 4 L 11 8 L 6 8 L 6 4 z M 13 4 L 18 4 L 18 8 L 13 8 L 13 4 z M 6 10 L 11 10 L 11 14 L 6 14 L 6 10 z M 18 12 C 14.698136 12 12 14.698136 12 18 C 12 21.301864 14.698136 24 18 24 C 21.301864 24 24 21.301864 24 18 C 24 14.698136 21.301864 12 18 12 z M 18 14 C 20.220984 14 22 15.779016 22 18 C 22 20.220984 20.220984 22 18 22 C 15.779016 22 14 20.220984 14 18 C 14 15.779016 15.779016 14 18 14 z M 18.427734 15.117188 L 16.828125 18.138672 L 18.925781 20.236328 L 19.986328 19.175781 L 18.671875 17.861328 L 19.753906 15.818359 L 18.427734 15.117188 z"/></svg>