<?xml version="1.0"?><svg fill="#000000" xmlns="http://www.w3.org/2000/svg" viewBox="0 0 24 24" width="24px" height="24px">    <path d="M 3 2 C 1.895 2 1 2.895 1 4 L 1 16 C 1 17.105 1.895 18 3 18 L 10 18 L 10 20 L 8 20 L 8 22 L 16 22 L 16 20 L 14 20 L 14 18 L 21 18 C 22.105 18 23 17.105 23 16 L 23 4 C 23 2.895 22.105 2 21 2 L 3 2 z M 3 4 L 21 4 L 21 16 L 3 16 L 3 11 L 5.4140625 11 L 7.8007812 8.6132812 L 10.800781 13.613281 L 13.414062 11 L 15.271484 11 A 2 2 0 0 0 17 12 A 2 2 0 0 0 19 10 A 2 2 0 0 0 17 8 A 2 2 0 0 0 15.269531 9 L 12.585938 9 L 11.199219 10.386719 L 8.1992188 5.3867188 L 4.5859375 9 L 3 9 L 3 4 z"/></svg>