<?xml version="1.0" encoding="UTF-8"?>
<svg width="75px" height="137px" viewBox="0 0 75 137" version="1.1" xmlns="http://www.w3.org/2000/svg" xmlns:xlink="http://www.w3.org/1999/xlink">
    <!-- Generator: Sketch 61.2 (89653) - https://sketch.com -->
    <title>Desktop</title>
    <desc>Created with Sketch.</desc>
    <g id="Desktop" stroke="none" stroke-width="1" fill="none" fill-rule="evenodd">
        <g id="Blue-Grok-Logo" transform="translate(12.000000, 0.000000)">
            <path d="M11.07,118 C11.07,118 9.25,132.52 25.44,132.2 C41.63,131.88 39.37,118 39.37,118 L11.07,118 Z" id="Path" fill="#4693C1" fill-rule="nonzero"></path>
            <rect id="Rectangle" fill="#4693C1" fill-rule="nonzero" x="11.16" y="109.82" width="28.4" height="6.54" rx="1.4"></rect>
            <rect id="Rectangle" fill="#4693C1" fill-rule="nonzero" x="11.16" y="101.62" width="28.4" height="6.54" rx="1.4"></rect>
            <path d="M11.19,98.51 C11.19,98.51 11.05,92.85 10.91,91.17 C10.8,88.49 9.02,83.31 8.31,81.79 C5.9,76 2.22044605e-16,70.17 2.22044605e-16,58.66 C-0.0520361776,53.004416 1.78502063,47.4932455 5.22,43 C9.98163779,36.9613282 17.3123762,33.5220334 25,33.72 C25,33.72 30.45,33.92 33.32,35.2 L30.64,40.28 C26.9419435,39.4951299 23.1126823,39.5738368 19.45,40.51 C11.0904479,42.6753941 5.36768928,50.3709437 5.7,59 C5.89535362,63.2471318 6.99664254,67.4033893 8.93,71.19 C8.93,71.19 13.59,79.83 14.93,83.48 C15.7856807,85.8610021 16.3367217,88.3406863 16.57,90.86 C16.76,93.67 16.67,98.54 16.67,98.54 L11.19,98.51 Z" id="Path" fill="#4693C1" fill-rule="nonzero"></path>
            <path d="M39.76,98.6 C39.76,98.6 39.61,94.69 39.76,90.75 C40.2027252,87.5696377 41.1691352,84.4845596 42.62,81.62 C44.87,75.72 51,70.26 51,58.74 C51.08,50.19 47,43.17 42.36,40.2 L39.76,45.07 C39.76,45.07 45.28,49.41 45.28,59.07 C45.0658568,63.3171482 43.9476096,67.4696638 42,71.25 C42,71.25 37.35,79.88 36,83.54 C35.1490981,85.9189429 34.5981807,88.3947121 34.36,90.91 C34.18,93.73 34.26,98.6 34.26,98.6 L39.76,98.6 Z" id="Path" fill="#4693C1" fill-rule="nonzero"></path>
            <rect id="Rectangle" stroke="#4693C1" stroke-width="8" x="16.01" y="50.5" width="19.04" height="19.04" rx="9.52"></rect>
            <line x1="31.32" y1="50.05" x2="47.65" y2="19.02" id="Path" stroke="#4693C1" stroke-width="6" fill="#F15A26" fill-rule="nonzero"></line>
            <circle id="Oval" fill="#4693C1" fill-rule="nonzero" cx="51.35" cy="11.5" r="11.34"></circle>
        </g>
    </g>
</svg>